<svg width="35" height="22" viewBox="0 0 35 22" fill="none" xmlns="http://www.w3.org/2000/svg">
<path d="M26.2929 5.76877C24.932 5.76877 23.6802 6.06274 22.5753 6.56668C23.5237 5.34881 24.4673 3.99563 25.4251 2.49313L22.7413 0.841309C20.1239 4.96152 17.7198 7.67723 15.3442 9.46436C13.9264 7.24794 11.4038 5.77343 8.34069 5.77343C3.50888 5.76877 0 9.34771 0 13.7386C0 18.1294 3.50888 21.7037 8.34069 21.7037C13.1109 21.7037 16.5866 18.1294 16.5866 13.7386C16.5866 13.3233 16.5439 12.9173 16.487 12.516C17.1461 12.0681 17.7957 11.5641 18.4358 11.0089C18.1229 11.8628 17.9474 12.7773 17.9474 13.7386C17.9474 18.1294 21.4563 21.7037 26.2881 21.7037C31.0583 21.7037 34.534 18.1294 34.534 13.7386C34.5435 9.34771 31.063 5.76877 26.2929 5.76877ZM8.34069 8.76911C10.2137 8.76911 11.7784 9.71634 12.6462 11.1208C9.70157 12.544 6.69531 12.824 3.28127 12.8567C3.69854 10.5469 5.71378 8.76911 8.34069 8.76911ZM8.34069 18.7033C6.25433 18.7033 4.55206 17.5835 3.73174 15.9643C7.28329 15.899 10.3844 15.5117 13.3622 14.2332C13.1204 16.7296 11.0577 18.7033 8.34069 18.7033ZM26.2929 18.7033C23.3388 18.7033 21.1528 16.4636 21.1528 13.7339C21.1528 11.0089 23.3388 8.76444 26.2929 8.76444C29.1853 8.76444 31.3428 11.0042 31.3428 13.7339C31.3428 16.4636 29.1853 18.7033 26.2929 18.7033Z" fill="#080844"/>
</svg>
