<svg width="44" height="55" viewBox="0 0 44 55" fill="none" xmlns="http://www.w3.org/2000/svg">
<path d="M43.1081 21.5542C43.1081 33.4582 36.4189 40.1353 21.5541 55.0001C6.68919 40.1353 0 33.4582 0 21.5542C0 9.6502 9.65008 0.00012207 21.5541 0.00012207C33.458 0.00012207 43.1081 9.6502 43.1081 21.5542Z" fill="#080844"/>
<path d="M28.46 18.2257C27.4485 18.2257 26.5181 18.4441 25.6969 18.8187C26.4018 17.9135 27.1031 16.9078 27.815 15.7911L25.8203 14.5634C23.8749 17.6257 22.0881 19.6441 20.3225 20.9724C19.2687 19.325 17.3938 18.2291 15.1171 18.2291C11.5259 18.2257 8.91797 20.8857 8.91797 24.1491C8.91797 27.4126 11.5259 30.0692 15.1171 30.0692C18.6625 30.0692 21.2458 27.4126 21.2458 24.1491C21.2458 23.8405 21.2141 23.5388 21.1718 23.2405C21.6617 22.9076 22.1445 22.533 22.6203 22.1203C22.3877 22.755 22.2573 23.4347 22.2573 24.1491C22.2573 27.4126 24.8652 30.0692 28.4564 30.0692C32.0018 30.0692 34.5851 27.4126 34.5851 24.1491C34.5922 20.8857 32.0054 18.2257 28.46 18.2257ZM15.1171 20.4556C16.5092 20.4556 17.6722 21.1597 18.3172 22.2036C16.1286 23.2613 13.8942 23.4694 11.3568 23.4937C11.6669 21.777 13.1647 20.4556 15.1171 20.4556ZM15.1171 27.8392C13.5665 27.8392 12.3013 27.0069 11.6916 25.8034C14.3312 25.7549 16.6361 25.467 18.8493 24.5168C18.6696 26.3722 17.1365 27.8392 15.1171 27.8392ZM28.46 27.8392C26.2644 27.8392 24.6397 26.1745 24.6397 24.1457C24.6397 22.1203 26.2644 20.4522 28.46 20.4522C30.6098 20.4522 32.2133 22.1168 32.2133 24.1457C32.2133 26.1745 30.6098 27.8392 28.46 27.8392Z" fill="#F0F7F2"/>
</svg>
