<?xml version="1.0" encoding="UTF-8" standalone="no"?>
<svg
   width="25.667145"
   height="15.5058"
   viewBox="0 0 25.667145 15.5058"
   fill="none"
   version="1.1"
   id="svg6"
   sodipodi:docname="logo-white.svg"
   inkscape:version="1.2.2 (732a01da63, 2022-12-09)"
   xmlns:inkscape="http://www.inkscape.org/namespaces/inkscape"
   xmlns:sodipodi="http://sodipodi.sourceforge.net/DTD/sodipodi-0.dtd"
   xmlns="http://www.w3.org/2000/svg"
   xmlns:svg="http://www.w3.org/2000/svg">
  <defs
     id="defs10" />
  <sodipodi:namedview
     id="namedview8"
     pagecolor="#ffffff"
     bordercolor="#000000"
     borderopacity="0.25"
     inkscape:showpageshadow="2"
     inkscape:pageopacity="0.0"
     inkscape:pagecheckerboard="0"
     inkscape:deskcolor="#d1d1d1"
     showgrid="false"
     inkscape:zoom="15.072727"
     inkscape:cx="22.026538"
     inkscape:cy="27.533172"
     inkscape:window-width="1920"
     inkscape:window-height="1009"
     inkscape:window-x="-8"
     inkscape:window-y="-8"
     inkscape:window-maximized="1"
     inkscape:current-layer="svg6" />
  <path
     d="m 19.54203,3.6623 c -1.0115,0 -1.9419,0.2184 -2.7631,0.593 0.7049,-0.9052 1.4062,-1.9109 2.1181,-3.0276 L 16.90233,0 c -1.9454,3.0623 -3.7322,5.0807 -5.4978,6.409 C 10.35073,4.7616 8.47583,3.6657 6.19913,3.6657 2.60793,3.6623 0,6.3223 0,9.5857 c 0,3.2635 2.60793,5.9201 6.19913,5.9201 3.5454002,0 6.1287,-2.6566 6.1287,-5.9201 0,-0.3086 -0.0317,-0.6103 -0.074,-0.9086 0.4899,-0.3329 0.9727,-0.7075 1.4485,-1.1202 -0.2326,0.6347 -0.363,1.3144 -0.363,2.0288 0,3.2635 2.6079,5.9201 6.1991,5.9201 3.5454,0 6.1287,-2.6566 6.1287,-5.9201 0.0071,-3.2634 -2.5797,-5.9234 -6.1251,-5.9234 z M 6.19913,5.8922 c 1.3921,0 2.5551,0.7041 3.2001,1.748 -2.1886,1.0577 -4.423,1.2658 -6.9604,1.2901 0.3101,-1.7167 1.8079,-3.0381 3.7603,-3.0381 z m 0,7.3836 c -1.5506,0 -2.8158,-0.8323 -3.4255,-2.0358 2.6396,-0.0485 4.9445,-0.3364 7.1577002,-1.2866003 C 9.7516302,11.8088 8.21853,13.2758 6.19913,13.2758 Z m 13.3429,0 c -2.1956,0 -3.8203,-1.6647 -3.8203,-3.6935 0,-2.0254 1.6247,-3.6935 3.8203,-3.6935 2.1498,0 3.7533,1.6646 3.7533,3.6935 0,2.0288 -1.6035,3.6935 -3.7533,3.6935 z"
     fill="#f0f7f2"
     id="path4" />
</svg>
